<svg xmlns="http://www.w3.org/2000/svg">
  <defs>
    <!-- https://heroicons.com/outline (flashbang warning) -->
    <symbol id="clipboard" fill="none" viewBox="0 0 24 24" stroke-width="1.5" stroke="currentColor">
      <path stroke-linecap="round" stroke-linejoin="round" d="M15.666 3.888A2.25 2.25 0 0 0 13.5 2.25h-3c-1.03 0-1.9.693-2.166 1.638m7.332 0c.055.194.084.4.084.612v0a.75.75 0 0 1-.75.75H9a.75.75 0 0 1-.75-.75v0c0-.212.03-.418.084-.612m7.332 0c.646.049 1.288.11 1.927.184 1.1.128 1.907 1.077 1.907 2.185V19.5a2.25 2.25 0 0 1-2.25 2.25H6.75A2.25 2.25 0 0 1 4.5 19.5V6.257c0-1.108.806-2.057 1.907-2.185a48.208 48.208 0 0 1 1.927-.184" />
    </symbol>

    <!-- https://en.wikipedia.org/wiki/File%3ASteam_icon_logo.svg -->
    <symbol id="steam" viewBox="0 0 65 65" fill="#fff">
      <use xmlns:xlink="http://www.w3.org/1999/xlink" xlink:href="#B" x=".5" y=".5"/><defs><linearGradient id="A" x2="50%" x1="50%" y2="100%" y1="0%"><stop stop-color="#111d2e" offset="0%"/><stop stop-color="#051839" offset="21.2%"/><stop stop-color="#0a1b48" offset="40.7%"/><stop stop-color="#132e62" offset="58.1%"/><stop stop-color="#144b7e" offset="73.8%"/><stop stop-color="#136497" offset="87.3%"/><stop stop-color="#1387b8" offset="100%"/></linearGradient></defs><symbol id="B"><g><path d="M1.305 41.202C5.259 54.386 17.488 64 31.959 64c17.673 0 32-14.327 32-32s-14.327-32-32-32C15.001 0 1.124 13.193.028 29.874c2.074 3.477 2.879 5.628 1.275 11.328z" fill="url(#A)"/><path d="M30.31 23.985l.003.158-7.83 11.375c-1.268-.058-2.54.165-3.748.662a8.14 8.14 0 0 0-1.498.8L.042 29.893s-.398 6.546 1.26 11.424l12.156 5.016c.6 2.728 2.48 5.12 5.242 6.27a8.88 8.88 0 0 0 11.603-4.782 8.89 8.89 0 0 0 .684-3.656L42.18 36.16l.275.005c6.705 0 12.155-5.466 12.155-12.18s-5.44-12.16-12.155-12.174c-6.702 0-12.155 5.46-12.155 12.174zm-1.88 23.05c-1.454 3.5-5.466 5.147-8.953 3.694a6.84 6.84 0 0 1-3.524-3.362l3.957 1.64a5.04 5.04 0 0 0 6.591-2.719 5.05 5.05 0 0 0-2.715-6.601l-4.1-1.695c1.578-.6 3.372-.62 5.05.077 1.7.703 3 2.027 3.696 3.72s.692 3.56-.01 5.246M42.466 32.1a8.12 8.12 0 0 1-8.098-8.113 8.12 8.12 0 0 1 8.098-8.111 8.12 8.12 0 0 1 8.1 8.111 8.12 8.12 0 0 1-8.1 8.113m-6.068-8.126a6.09 6.09 0 0 1 6.08-6.095c3.355 0 6.084 2.73 6.084 6.095a6.09 6.09 0 0 1-6.084 6.093 6.09 6.09 0 0 1-6.081-6.093z"/></g></symbol>
    </symbol>

    <!--
    Source: https://github.com/logos. But we had to edit the properties to make
    it resizable and recolorable, and used the colors from the _actual_ GitHub
    website.
    -->
    <symbol id="github" viewBox="0 0 98 96" fill="currentColor">
      <path d="M48.854 0C21.839 0 0 22 0 49.217c0 21.756 13.993 40.172 33.405 46.69 2.427.49 3.316-1.059 3.316-2.362 0-1.141-.08-5.052-.08-9.127-13.59 2.934-16.42-5.867-16.42-5.867-2.184-5.704-5.42-7.17-5.42-7.17-4.448-3.015.324-3.015.324-3.015 4.934.326 7.523 5.052 7.523 5.052 4.367 7.496 11.404 5.378 14.235 4.074.404-3.178 1.699-5.378 3.074-6.6-10.839-1.141-22.243-5.378-22.243-24.283 0-5.378 1.94-9.778 5.014-13.2-.485-1.222-2.184-6.275.486-13.038 0 0 4.125-1.304 13.426 5.052a46.97 46.97 0 0 1 12.214-1.63c4.125 0 8.33.571 12.213 1.63 9.302-6.356 13.427-5.052 13.427-5.052 2.67 6.763.97 11.816.485 13.038 3.155 3.422 5.015 7.822 5.015 13.2 0 18.905-11.404 23.06-22.324 24.283 1.78 1.548 3.316 4.481 3.316 9.126 0 6.6-.08 11.897-.08 13.526 0 1.304.89 2.853 3.316 2.364 19.412-6.52 33.405-24.935 33.405-46.691C97.707 22 75.788 0 48.854 0z" />
    </symbol>

    <!-- https://discord.com/branding -->
    <symbol id="discord" viewBox="0 0 126.644 96" fill="#5865f2">
      <path d="M81.15,0c-1.2376,2.1973-2.3489,4.4704-3.3591,6.794-9.5975-1.4396-19.3718-1.4396-28.9945,0-.985-2.3236-2.1216-4.5967-3.3591-6.794-9.0166,1.5407-17.8059,4.2431-26.1405,8.0568C2.779,32.5304-1.6914,56.3725.5312,79.8863c9.6732,7.1476,20.5083,12.603,32.0505,16.0884,2.6014-3.4854,4.8998-7.1981,6.8698-11.0623-3.738-1.3891-7.3497-3.1318-10.8098-5.1523.9092-.6567,1.7932-1.3386,2.6519-1.9953,20.281,9.547,43.7696,9.547,64.0758,0,.8587.7072,1.7427,1.3891,2.6519,1.9953-3.4601,2.0457-7.0718,3.7632-10.835,5.1776,1.97,3.8642,4.2683,7.5769,6.8698,11.0623,11.5419-3.4854,22.3769-8.9156,32.0509-16.0631,2.626-27.2771-4.496-50.9172-18.817-71.8548C98.9811,4.2684,90.1918,1.5659,81.1752.0505l-.0252-.0505ZM42.2802,65.4144c-6.2383,0-11.4159-5.6575-11.4159-12.6535s4.9755-12.6788,11.3907-12.6788,11.5169,5.708,11.4159,12.6788c-.101,6.9708-5.026,12.6535-11.3907,12.6535ZM84.3576,65.4144c-6.2637,0-11.3907-5.6575-11.3907-12.6535s4.9755-12.6788,11.3907-12.6788,11.4917,5.708,11.3906,12.6788c-.101,6.9708-5.026,12.6535-11.3906,12.6535Z"/>
    </symbol>
  </defs>
</svg>
